<?xml version="1.0" encoding="UTF-8"?>
<svg xmlns="http://www.w3.org/2000/svg" xmlns:xlink="http://www.w3.org/1999/xlink" width="130px" height="21px" viewBox="0 0 129 21" version="1.1">
<g id="surface1">
<path style=" stroke:none;fill-rule:nonzero;fill:rgb(0%,0%,0%);fill-opacity:1;" d="M 65.273438 0.046875 C 64.339844 0.214844 63.609375 0.882812 63.371094 1.78125 C 62.855469 3.695312 64.867188 5.074219 66.539062 3.949219 C 67.132812 3.546875 67.597656 2.683594 67.597656 1.996094 C 67.597656 1.265625 67.097656 0.488281 66.453125 0.207031 C 66.132812 0.0703125 65.558594 -0.0117188 65.273438 0.046875 Z M 65.273438 0.046875 "/>
<path style=" stroke:none;fill-rule:nonzero;fill:rgb(0%,0%,0%);fill-opacity:1;" d="M 48.8125 0.332031 C 47.683594 0.46875 46.421875 0.902344 46.085938 1.273438 C 45.8125 1.566406 45.867188 1.78125 46.3125 2.25 C 46.632812 2.585938 46.699219 2.691406 46.699219 2.878906 C 46.699219 3.15625 43.253906 14.5625 43.066406 14.910156 C 42.988281 15.046875 42.796875 15.261719 42.632812 15.378906 C 41.894531 15.914062 41.769531 16.085938 41.925781 16.375 C 42.09375 16.6875 42.222656 16.699219 45.519531 16.699219 C 47.523438 16.699219 48.691406 16.671875 48.851562 16.628906 C 49.160156 16.542969 49.40625 16.300781 49.40625 16.09375 C 49.40625 16.003906 49.316406 15.839844 49.199219 15.71875 C 48.847656 15.347656 48.761719 15.191406 48.761719 14.878906 C 48.761719 14.699219 48.957031 13.9375 49.289062 12.839844 L 49.820312 11.097656 L 50.234375 11.128906 C 51.089844 11.195312 51.1875 11.566406 50.710938 12.851562 C 50.554688 13.261719 50.398438 13.753906 50.367188 13.949219 C 50.128906 15.257812 51.039062 16.445312 52.542969 16.800781 C 53.171875 16.945312 54.269531 16.933594 54.894531 16.769531 C 55.894531 16.511719 56.675781 15.945312 57.019531 15.238281 C 57.222656 14.808594 57.28125 14.046875 57.113281 13.878906 C 57.003906 13.773438 56.984375 13.773438 56.765625 13.988281 C 56.476562 14.269531 56.289062 14.320312 56.101562 14.164062 L 55.953125 14.046875 L 56.171875 13.164062 C 56.429688 12.113281 56.425781 11.703125 56.140625 11.175781 C 55.851562 10.636719 55.328125 10.292969 54.457031 10.066406 C 54.1875 10 53.871094 9.941406 53.753906 9.941406 C 53.476562 9.941406 53.433594 9.851562 53.59375 9.628906 C 53.65625 9.53125 53.792969 9.214844 53.890625 8.921875 C 54.078125 8.335938 54.257812 8.058594 54.445312 8.058594 C 54.535156 8.058594 54.566406 8.101562 54.566406 8.21875 C 54.566406 8.460938 54.714844 8.777344 54.949219 9.042969 C 55.507812 9.695312 56.921875 9.804688 57.804688 9.265625 C 58.449219 8.882812 58.757812 8.257812 58.757812 7.367188 C 58.757812 6.730469 58.585938 6.277344 58.171875 5.816406 C 57.121094 4.664062 54.890625 4.660156 53.675781 5.808594 C 53.179688 6.269531 52.625 7.21875 52.285156 8.1875 C 51.929688 9.167969 51.710938 9.355469 50.898438 9.355469 C 50.613281 9.355469 50.375 9.335938 50.375 9.304688 C 50.375 9.277344 50.800781 7.867188 51.316406 6.171875 C 51.832031 4.476562 52.296875 2.886719 52.347656 2.632812 C 52.582031 1.539062 52.140625 0.726562 51.148438 0.421875 C 50.714844 0.292969 49.511719 0.242188 48.8125 0.332031 Z M 48.8125 0.332031 "/>
<path style=" stroke:none;fill-rule:nonzero;fill:rgb(0%,0%,0%);fill-opacity:1;" d="M 7.0625 1.734375 C 5.429688 1.996094 3.703125 2.90625 2.675781 4.046875 C 0.988281 5.917969 -0.136719 9.433594 0.195312 11.792969 C 0.488281 13.878906 1.664062 15.445312 3.546875 16.25 C 4.964844 16.855469 7.003906 17.015625 8.480469 16.632812 C 9.71875 16.316406 11.289062 15.300781 12.085938 14.3125 C 12.898438 13.292969 13.09375 12.761719 12.828125 12.273438 C 12.640625 11.929688 12.144531 11.566406 11.816406 11.519531 C 11.4375 11.46875 11.210938 11.625 10.222656 12.632812 C 8.964844 13.90625 8.488281 14.164062 7.398438 14.164062 C 6.792969 14.164062 6.539062 14.0625 6.222656 13.695312 C 5.636719 13 5.59375 11.625 6.09375 9.648438 C 6.664062 7.414062 7.507812 5.640625 8.367188 4.875 C 8.792969 4.488281 9.160156 4.332031 9.648438 4.332031 C 10.410156 4.332031 10.71875 4.644531 11.507812 6.179688 C 12.171875 7.480469 12.550781 7.855469 13.191406 7.863281 C 13.835938 7.863281 14.191406 7.589844 14.449219 6.90625 C 15.234375 4.796875 15.800781 3.085938 15.800781 2.808594 C 15.800781 2.132812 15.371094 1.84375 14.433594 1.898438 C 13.796875 1.929688 13.492188 2.074219 12.675781 2.695312 C 12.371094 2.929688 12.113281 3.117188 12.09375 3.117188 C 12.074219 3.117188 11.90625 3 11.726562 2.851562 C 11.3125 2.527344 10.230469 1.996094 9.675781 1.851562 C 9.261719 1.742188 7.496094 1.664062 7.0625 1.734375 Z M 7.0625 1.734375 "/>
<path style=" stroke:none;fill-rule:nonzero;fill:rgb(0%,0%,0%);fill-opacity:1;" d="M 87.210938 1.957031 C 86.816406 2.035156 86.644531 2.171875 86.550781 2.457031 C 86.488281 2.691406 86.496094 2.734375 86.746094 3.210938 C 86.902344 3.507812 87.011719 3.800781 87.011719 3.929688 C 87.011719 4.160156 84.242188 14.101562 84.0625 14.507812 C 83.953125 14.769531 83.613281 15.105469 83.128906 15.445312 C 82.742188 15.703125 82.605469 16.074219 82.78125 16.339844 C 83.019531 16.707031 83.039062 16.707031 86.773438 16.6875 C 90.570312 16.667969 90.53125 16.667969 90.675781 16.242188 C 90.769531 15.972656 90.730469 15.894531 90.230469 15.355469 C 89.597656 14.679688 89.597656 14.75 90.25 12.378906 L 90.785156 10.429688 L 91.558594 10.433594 C 92.453125 10.433594 92.738281 10.527344 92.945312 10.863281 C 93.132812 11.175781 93.105469 11.488281 92.808594 12.683594 C 92.359375 14.46875 92.441406 15.355469 93.132812 16.050781 C 93.707031 16.628906 94.503906 16.898438 95.652344 16.898438 C 96.847656 16.90625 97.671875 16.691406 98.425781 16.179688 C 99.070312 15.742188 99.554688 14.890625 99.402344 14.46875 C 99.328125 14.289062 99.019531 14.164062 98.609375 14.164062 C 98.425781 14.164062 98.335938 14.125 98.238281 13.996094 C 98.066406 13.769531 98.070312 13.539062 98.277344 12.691406 C 98.503906 11.753906 98.523438 10.875 98.316406 10.488281 C 98.007812 9.894531 97.570312 9.570312 96.851562 9.414062 L 96.472656 9.332031 L 96.980469 9.21875 C 98.582031 8.875 99.613281 8.011719 100.070312 6.640625 C 100.382812 5.710938 100.34375 4.9375 99.949219 4.125 C 99.367188 2.9375 98.019531 2.15625 96.214844 1.957031 C 95.472656 1.871094 87.628906 1.871094 87.210938 1.957031 Z M 93.867188 4.300781 C 94.441406 4.476562 94.6875 4.976562 94.570312 5.757812 C 94.394531 6.90625 93.996094 7.632812 93.371094 7.953125 C 93.027344 8.136719 92.929688 8.15625 92.203125 8.175781 L 91.410156 8.199219 L 91.898438 6.210938 L 92.394531 4.222656 L 93.003906 4.222656 C 93.332031 4.222656 93.726562 4.257812 93.867188 4.300781 Z M 93.867188 4.300781 "/>
<path style=" stroke:none;fill-rule:nonzero;fill:rgb(0%,0%,0%);fill-opacity:1;" d="M 73.167969 4.878906 C 70.472656 5.082031 68.363281 6.535156 67.433594 8.851562 C 66.988281 9.96875 66.789062 11.125 66.839844 12.273438 C 66.917969 14.066406 67.726562 15.328125 69.292969 16.105469 C 70.226562 16.574219 70.808594 16.707031 72.109375 16.742188 C 73.328125 16.78125 73.996094 16.691406 74.820312 16.367188 C 75.851562 15.972656 76.839844 15.125 77.257812 14.28125 C 77.484375 13.839844 77.613281 13.269531 77.554688 13.019531 C 77.484375 12.734375 77.367188 12.75 75.882812 13.230469 C 75.136719 13.46875 75.078125 13.476562 74.207031 13.476562 C 73.511719 13.476562 73.238281 13.449219 73.015625 13.359375 C 72.304688 13.085938 71.96875 12.675781 71.851562 11.929688 C 71.8125 11.683594 71.796875 11.476562 71.808594 11.460938 C 71.8125 11.449219 72.257812 11.476562 72.78125 11.511719 C 75.511719 11.734375 77.898438 11.050781 78.734375 9.824219 C 79.117188 9.265625 79.238281 8.824219 79.238281 8.023438 C 79.238281 7.425781 79.21875 7.34375 79.03125 6.933594 C 78.773438 6.394531 78.246094 5.839844 77.683594 5.542969 C 76.703125 5.015625 74.902344 4.75 73.167969 4.878906 Z M 74.027344 6.886719 C 74.199219 7.238281 74.070312 8.328125 73.769531 8.992188 C 73.460938 9.675781 73 10.03125 72.34375 10.109375 C 72.046875 10.148438 71.980469 10.136719 71.980469 10.058594 C 71.980469 9.785156 72.414062 8.460938 72.691406 7.894531 C 73.1875 6.863281 73.789062 6.40625 74.027344 6.886719 Z M 74.027344 6.886719 "/>
<path style=" stroke:none;fill-rule:nonzero;fill:rgb(0%,0%,0%);fill-opacity:1;" d="M 21.800781 5.007812 C 18.222656 5.417969 15.359375 7.847656 14.691406 11.046875 C 14.527344 11.839844 14.511719 12.921875 14.667969 13.539062 C 14.96875 14.8125 15.929688 15.875 17.242188 16.398438 C 18.480469 16.898438 20.792969 17.0625 22.292969 16.761719 C 24.269531 16.367188 25.980469 15.339844 27.121094 13.871094 C 28.691406 11.859375 29.160156 9.082031 28.238281 7.324219 C 27.910156 6.699219 27.175781 5.992188 26.507812 5.660156 C 25.328125 5.074219 23.472656 4.820312 21.800781 5.007812 Z M 23.195312 7.089844 C 23.296875 7.207031 23.316406 7.324219 23.308594 7.886719 C 23.308594 8.714844 23.097656 9.609375 22.414062 11.683594 C 21.871094 13.328125 21.464844 14.234375 21.078125 14.660156 C 20.644531 15.132812 20.128906 15.105469 19.9375 14.59375 C 19.742188 14.082031 20.066406 12.5 20.859375 10.097656 C 21.460938 8.285156 21.960938 7.308594 22.433594 7.054688 C 22.699219 6.90625 23.046875 6.925781 23.195312 7.089844 Z M 23.195312 7.089844 "/>
<path style=" stroke:none;fill-rule:nonzero;fill:rgb(0%,0%,0%);fill-opacity:1;" d="M 36.3125 5.007812 C 32.734375 5.417969 29.875 7.84375 29.199219 11.046875 C 29.039062 11.832031 29.023438 12.917969 29.179688 13.539062 C 29.484375 14.8125 30.445312 15.875 31.753906 16.398438 C 32.992188 16.898438 35.308594 17.0625 36.804688 16.761719 C 38.785156 16.367188 40.492188 15.339844 41.632812 13.871094 C 43.203125 11.859375 43.671875 9.082031 42.75 7.324219 C 42.421875 6.699219 41.6875 5.992188 41.023438 5.660156 C 39.839844 5.074219 37.984375 4.820312 36.3125 5.007812 Z M 37.707031 7.089844 C 37.808594 7.207031 37.828125 7.324219 37.824219 7.886719 C 37.824219 8.714844 37.609375 9.609375 36.925781 11.683594 C 36.378906 13.351562 35.933594 14.332031 35.539062 14.71875 C 35.308594 14.945312 35.238281 14.976562 34.984375 14.976562 C 34.644531 14.976562 34.476562 14.820312 34.40625 14.4375 C 34.222656 13.488281 35.625 8.777344 36.4375 7.601562 C 36.570312 7.40625 36.777344 7.179688 36.894531 7.09375 C 37.171875 6.90625 37.539062 6.90625 37.707031 7.089844 Z M 37.707031 7.089844 "/>
<path style=" stroke:none;fill-rule:nonzero;fill:rgb(0%,0%,0%);fill-opacity:1;" d="M 63.003906 5.007812 C 61.746094 5.164062 60.417969 5.660156 60.171875 6.0625 C 59.980469 6.386719 60.015625 6.503906 60.4375 6.917969 C 60.777344 7.265625 60.824219 7.335938 60.824219 7.5625 C 60.824219 7.785156 59.09375 13.753906 58.777344 14.613281 C 58.648438 14.964844 58.3125 15.355469 57.941406 15.574219 C 57.445312 15.867188 57.328125 16.21875 57.636719 16.511719 L 57.804688 16.667969 L 61.003906 16.6875 C 63.828125 16.699219 64.242188 16.691406 64.480469 16.601562 C 64.757812 16.492188 65.015625 16.238281 65.015625 16.074219 C 65.015625 16.023438 64.875 15.828125 64.699219 15.632812 C 64.363281 15.261719 64.253906 14.964844 64.332031 14.640625 C 64.359375 14.535156 64.859375 12.878906 65.453125 10.949219 C 66.519531 7.464844 66.523438 7.433594 66.53125 6.824219 C 66.53125 6.261719 66.511719 6.179688 66.351562 5.898438 C 65.988281 5.277344 65.378906 5.007812 64.210938 4.96875 C 63.824219 4.957031 63.28125 4.976562 63.003906 5.007812 Z M 63.003906 5.007812 "/>
<path style=" stroke:none;fill-rule:nonzero;fill:rgb(0%,0%,0%);fill-opacity:1;" d="M 103.941406 5.027344 C 102.910156 5.269531 102.007812 5.925781 101.363281 6.90625 C 101.097656 7.308594 100.75 8.238281 100.75 8.558594 C 100.75 8.992188 100.871094 9.0625 101.238281 8.832031 C 101.363281 8.757812 101.535156 8.707031 101.625 8.71875 C 101.988281 8.757812 102.011719 8.875 102.523438 12.027344 C 102.789062 13.652344 103.046875 15.164062 103.101562 15.394531 C 103.367188 16.464844 103.890625 17.015625 104.921875 17.316406 L 105.40625 17.457031 L 105.089844 17.71875 C 104.484375 18.230469 103.535156 18.648438 102.972656 18.648438 C 102.789062 18.648438 102.773438 18.628906 102.675781 18.207031 C 102.527344 17.59375 102.328125 17.199219 101.960938 16.796875 C 101.554688 16.347656 101.105469 16.121094 100.511719 16.070312 C 99.335938 15.972656 98.515625 16.691406 98.441406 17.894531 C 98.316406 19.863281 100.214844 21.195312 102.753906 20.921875 C 105.0625 20.675781 107.179688 19.523438 109.328125 17.355469 C 111.171875 15.484375 112.507812 13.339844 113.320312 10.933594 C 113.6875 9.851562 113.835938 9.128906 113.882812 8.21875 C 113.957031 6.632812 113.496094 5.535156 112.558594 5.113281 C 112.125 4.917969 111.410156 4.925781 110.960938 5.125 C 110.082031 5.523438 109.519531 6.632812 109.519531 7.980469 C 109.519531 9.023438 109.816406 9.84375 110.496094 10.648438 L 110.863281 11.097656 L 110.585938 11.722656 C 109.992188 13.046875 109.367188 13.839844 108.902344 13.839844 C 108.578125 13.839844 108.558594 13.75 108.128906 10.589844 C 107.902344 8.945312 107.667969 7.421875 107.613281 7.191406 C 107.328125 6.140625 106.78125 5.414062 106.070312 5.132812 C 105.578125 4.945312 104.523438 4.894531 103.941406 5.027344 Z M 103.941406 5.027344 "/>
<path style=" stroke:none;fill-rule:nonzero;fill:rgb(0%,0%,0%);fill-opacity:1;" d="M 117.765625 5.035156 C 115.855469 5.308594 114.640625 6.003906 115.03125 6.59375 C 115.085938 6.679688 115.25 6.84375 115.390625 6.957031 C 115.878906 7.355469 115.894531 7.285156 114.972656 10.296875 C 114.527344 11.761719 114.125 13.171875 114.09375 13.429688 C 113.957031 14.339844 114.230469 15.199219 114.828125 15.777344 C 115.511719 16.425781 116.480469 16.761719 117.640625 16.761719 C 118.023438 16.761719 118.511719 16.71875 118.746094 16.660156 C 119.542969 16.472656 120.453125 15.945312 121.167969 15.257812 L 121.433594 14.996094 L 121.480469 15.183594 C 121.542969 15.445312 121.878906 15.945312 122.136719 16.179688 C 122.691406 16.667969 123.433594 16.898438 124.460938 16.90625 C 125.644531 16.914062 126.574219 16.574219 127.335938 15.867188 C 128 15.25 128.304688 14.308594 127.980469 13.898438 L 127.859375 13.753906 L 127.679688 13.957031 C 127.328125 14.351562 126.871094 14.351562 126.871094 13.949219 C 126.871094 13.832031 127.289062 12.351562 127.808594 10.65625 C 128.324219 8.960938 128.78125 7.375 128.820312 7.132812 C 128.992188 6.148438 128.515625 5.386719 127.554688 5.101562 C 126.1875 4.691406 123.164062 5.222656 122.523438 5.984375 C 122.253906 6.308594 122.296875 6.523438 122.710938 6.898438 C 122.957031 7.128906 123.074219 7.296875 123.105469 7.441406 C 123.128906 7.609375 122.976562 8.21875 122.421875 10.050781 C 122.019531 11.363281 121.652344 12.527344 121.59375 12.636719 C 121.3125 13.203125 120.976562 13.457031 120.523438 13.460938 C 120.074219 13.476562 119.839844 13.253906 119.839844 12.839844 C 119.839844 12.753906 120.195312 11.519531 120.621094 10.097656 C 121.316406 7.804688 121.410156 7.441406 121.433594 6.917969 C 121.460938 6.375 121.453125 6.308594 121.28125 5.976562 C 121.066406 5.554688 120.6875 5.242188 120.207031 5.101562 C 119.738281 4.957031 118.519531 4.925781 117.765625 5.035156 Z M 117.765625 5.035156 "/>
</g>
</svg>
